PathFileType	4	(X/Y/Z)	/Users/itak/Documents/Research/Walk-IL/dataset/trc/00544_00009.trc
DataRate	CameraRate	NumFrames	NumMarkers	Units	OrigDataRate	OrigDataStartFrame	OrigNumFrames
100.000000	100.000000	4	53	mm	100.000000	68	547
Frame#	Time	RPSI			LPSI			L3			STRN			T10			C7			CLAV			RBAK			LBAK			LSHO			LUPA			LAEL			LAOL			LWTS			LWPS			LFRA			LIFD			LHPS			LHTS			RSHO			RUPA			RAEL			RAOL			RWTS			RWPS			RFRA			RIFD			RHTS			RHPS			RBHD			LFHD			RFHD			LBHD			LHIP			RHIP			RASI			LASI			LKNE			LTHI			LANK			LTIP			LTOE			LMT1			LMT5			LHEE			RKNE			RTHI			RANK			RTIP			RTOE			RMT1			RMT5			RHEE			
		X1	Y1	Z1	X2	Y2	Z2	X3	Y3	Z3	X4	Y4	Z4	X5	Y5	Z5	X6	Y6	Z6	X7	Y7	Z7	X8	Y8	Z8	X9	Y9	Z9	X10	Y10	Z10	X11	Y11	Z11	X12	Y12	Z12	X13	Y13	Z13	X14	Y14	Z14	X15	Y15	Z15	X16	Y16	Z16	X17	Y17	Z17	X18	Y18	Z18	X19	Y19	Z19	X20	Y20	Z20	X21	Y21	Z21	X22	Y22	Z22	X23	Y23	Z23	X24	Y24	Z24	X25	Y25	Z25	X26	Y26	Z26	X27	Y27	Z27	X28	Y28	Z28	X29	Y29	Z29	X30	Y30	Z30	X31	Y31	Z31	X32	Y32	Z32	X33	Y33	Z33	X34	Y34	Z34	X35	Y35	Z35	X36	Y36	Z36	X37	Y37	Z37	X38	Y38	Z38	X39	Y39	Z39	X40	Y40	Z40	X41	Y41	Z41	X42	Y42	Z42	X43	Y43	Z43	X44	Y44	Z44	X45	Y45	Z45	X46	Y46	Z46	X47	Y47	Z47	X48	Y48	Z48	X49	Y49	Z49	X50	Y50	Z50	X51	Y51	Z51	X52	Y52	Z52	X53	Y53	Z53	

69	0.68	-868.1099853515625	1025.7626953125	170.1004333496094	-853.7258911132812	1029.2216796875	36.74341583251953	-854.1803588867188	1107.856567382812	98.86744689941406	-625.5455932617188	1301.42333984375	106.8614883422852	-864.5172729492188	1234.593994140625	96.93143463134766	-827.5362548828125	1509.044921875	112.91162109375	-649.3770141601562	1412.649291992188	106.4279861450195	-897.0308227539062	1380.469482421875	192.1140289306641	-857.8236694335938	1455.135498046875	20.81326866149902	-759.4891357421875	1484.592041015625	-56.69805908203125	-767.8081665039062	1360.036254882812	-140.5654602050781	-747.5077514648438	1138.359375	-161.3312072753906	-837.7337036132812	1130.425415039062	-115.3782730102539	-654.1449584960938	897.8673095703125	-104.3284530639648	-691.769775390625	873.200439453125	-178.6388397216797	-722.90771484375	1052.343505859375	-165.6968231201172	-649.1058349609375	729.8038940429688	-108.8705596923828	-680.7889404296875	814.1206665039062	-170.0030670166016	-631.8104248046875	822.2533569335938	-122.6970825195312	-774.1447143554688	1472.356079101562	268.42724609375	-795.5559692382812	1407.69140625	335.4049987792969	-797.5313720703125	1118.773193359375	382.0656127929688	-850.77001953125	1101.155029296875	353.2346496582031	-663.5536499023438	897.260986328125	343.6788330078125	-708.4573364257812	877.9651489257812	410.43994140625	-785.9055786132812	1063.424072265625	390.1840209960938	-651.1415405273438	724.4306640625	351.4254150390625	-635.1207885742188	806.946533203125	360.5541381835938	-690.788330078125	803.244384765625	409.2734375	-761.919189453125	1691.287963867188	178.1359710693359	-600.495361328125	1718.99462890625	50.20077514648438	-624.84228515625	1718.417724609375	191.9342956542969	-727.2860107421875	1691.063232421875	15.63506889343262	-720.9956665039062	942.7010498046875	-82.88404083251953	-758.4976196289062	946.7914428710938	302.3603820800781	-668.4788818359375	973.2999877929688	249.9974365234375	-643.9812622070312	965.6673583984375	-26.57026481628418	-713.1886596679688	494.9573974609375	-17.58737945556641	-705.6868286132812	660.8886108398438	-58.59616088867188	-798.293212890625	33.8758659362793	-10.96464729309082	-779.0648803710938	252.4221343994141	-24.38224601745605	-596.009033203125	39.03363037109375	68.89694976806641	-672.3258666992188	40.91667556762695	95.85275268554688	-675.0474243164062	35.9817008972168	-11.77410888671875	-872.761474609375	35.10040283203125	34.67630004882812	-742.5242309570312	500.0671691894531	258.5110168457031	-723.9673461914062	791.0858764648438	301.3511657714844	-829.6677856445312	35.22725296020508	242.4287261962891	-746.9218139648438	357.9956359863281	246.1245574951172	-607.4713134765625	39.21477127075195	213.3697204589844	-668.1265869140625	40.37231826782227	168.3234100341797	-698.3418579101562	37.10000991821289	270.5071716308594	-879.9666748046875	27.75214958190918	183.2912139892578	
70	0.6900000000000001	-868.0790405273438	1025.708740234375	169.3603210449219	-853.6470947265625	1029.084228515625	35.95157623291016	-854.139404296875	1107.994140625	98.11321258544922	-625.2976684570312	1301.311767578125	105.9682388305664	-864.3731689453125	1234.754760742188	96.18305206298828	-826.9688110351562	1509.165649414062	112.1476974487305	-648.883056640625	1412.58837890625	105.547981262207	-896.5546875	1380.721557617188	191.4393768310547	-857.3617553710938	1455.296508789062	20.06994247436523	-759.0330200195312	1484.6787109375	-57.51702499389648	-767.521484375	1360.096801757812	-141.3981781005859	-747.4620361328125	1138.388916015625	-162.1708984375	-837.7211303710938	1130.611572265625	-116.2124328613281	-654.246337890625	897.9340209960938	-105.1968536376953	-691.9381103515625	873.2557373046875	-179.4310760498047	-722.9071044921875	1052.354248046875	-166.5124053955078	-649.4893188476562	729.7333984375	-109.6556549072266	-681.085693359375	814.0867309570312	-170.7820281982422	-632.1392822265625	822.1536254882812	-123.4696731567383	-773.5261840820312	1472.362548828125	267.6180114746094	-794.921875	1407.759155273438	334.6263122558594	-797.2312622070312	1118.9140625	381.4044799804688	-850.4863891601562	1101.309204101562	352.5856323242188	-663.4646606445312	897.2456665039062	343.0845031738281	-708.3741455078125	878.0321044921875	409.8343811035156	-785.5725708007812	1063.5029296875	389.5274353027344	-651.1544799804688	724.3165893554688	350.8378601074219	-635.0283203125	806.8624267578125	359.9468994140625	-690.834228515625	803.2472534179688	408.7704467773438	-761.0772705078125	1691.282958984375	177.3847503662109	-599.6517944335938	1718.811645507812	49.39132690429688	-623.8973388671875	1718.175415039062	191.0989837646484	-726.4217529296875	1691.047241210938	14.91983985900879	-720.8199462890625	942.5457763671875	-83.67216491699219	-758.401123046875	946.8660278320312	301.67578125	-668.4104614257812	973.415283203125	249.3332824707031	-643.8403930664062	965.6217651367188	-27.27046966552734	-712.7818603515625	494.9691467285156	-17.86516380310059	-705.2929077148438	660.8013916015625	-58.97410583496094	-798.2908935546875	33.86346435546875	-10.97199153900146	-778.8964233398438	252.3529205322266	-24.54117584228516	-596.0252685546875	39.029296875	68.90829467773438	-672.3330688476562	40.91962814331055	95.85912322998047	-675.040771484375	35.97428512573242	-11.77192497253418	-872.7694091796875	35.09883117675781	34.65702819824219	-742.2993774414062	500.1305541992188	258.1549987792969	-723.7409057617188	791.1946411132812	300.7244262695312	-829.6688842773438	35.20924758911133	242.4504852294922	-746.7219848632812	358.0508728027344	245.8406829833984	-607.4708251953125	39.21848297119141	213.3659362792969	-668.133544921875	40.37094497680664	168.3202209472656	-698.3399658203125	37.10409164428711	270.5026245117188	-879.981689453125	27.75227165222168	183.3216247558594	
71	0.7000000000000001	-868.0134887695312	1025.658325195312	168.5793151855469	-853.5523071289062	1028.925537109375	35.13576126098633	-854.0706176757812	1108.143798828125	97.32170104980469	-625.0489501953125	1301.193603515625	105.0431289672852	-864.2283325195312	1234.906372070312	95.40093994140625	-826.3935546875	1509.282836914062	111.3494338989258	-648.3590698242188	1412.536743164062	104.6395568847656	-896.06689453125	1380.973266601562	190.7279968261719	-856.8853759765625	1455.455688476562	19.28880882263184	-758.5426025390625	1484.74267578125	-58.36400604248047	-767.2110595703125	1360.16455078125	-142.2626037597656	-747.4095458984375	1138.415405273438	-163.0485076904297	-837.6846923828125	1130.792724609375	-117.104248046875	-654.3279418945312	897.9722900390625	-106.1056289672852	-692.1124267578125	873.287109375	-180.2566986083984	-722.9056396484375	1052.351684570312	-167.3711853027344	-649.85498046875	729.6522827148438	-110.4911193847656	-681.3665771484375	814.0516967773438	-171.6113433837891	-632.44970703125	822.0435791015625	-124.2925720214844	-772.8986206054688	1472.3798828125	266.7841796875	-794.28857421875	1407.8310546875	333.81005859375	-796.9124145507812	1119.047607421875	380.7132263183594	-850.201416015625	1101.462280273438	351.9317016601562	-663.3810424804688	897.2396240234375	342.4465026855469	-708.2969970703125	878.1024169921875	409.1984558105469	-785.240478515625	1063.599243164062	388.8497924804688	-651.1713256835938	724.2344360351562	350.1811218261719	-634.9589233398438	806.7716674804688	359.2657165527344	-690.854736328125	803.232666015625	408.172119140625	-760.2050170898438	1691.27587890625	176.6017608642578	-598.7803955078125	1718.610595703125	48.54679107666016	-622.9190063476562	1717.925048828125	190.2445831298828	-725.5232543945312	1691.010986328125	14.16362762451172	-720.6427001953125	942.4010620117188	-84.50344085693359	-758.286865234375	946.9465942382812	300.9634399414062	-668.3355712890625	973.5275268554688	248.6441650390625	-643.6705932617188	965.5851440429688	-28.01400375366211	-712.3738403320312	494.9729919433594	-18.15178298950195	-704.8495483398438	660.6702270507812	-59.36844253540039	-798.2894897460938	33.84373092651367	-10.97635078430176	-778.70947265625	252.2484436035156	-24.69351768493652	-596.0462036132812	39.02534484863281	68.92223358154297	-672.34423828125	40.92117309570312	95.86784362792969	-675.0326538085938	35.9649543762207	-11.76848602294922	-872.7778930664062	35.09441757202148	34.63751220703125	-742.0664672851562	500.1942443847656	257.7719421386719	-723.4880981445312	791.2982788085938	300.060546875	-829.6690673828125	35.19832611083984	242.4696502685547	-746.4932250976562	358.1113891601562	245.5159759521484	-607.469482421875	39.22248077392578	213.3611907958984	-668.1388549804688	40.36958694458008	168.3137359619141	-698.336181640625	37.10994338989258	270.4941711425781	-879.9954833984375	27.75395774841309	183.3488159179688	
72	0.71	-867.9115600585938	1025.608642578125	167.7535095214844	-853.4398193359375	1028.749267578125	34.29779434204102	-853.9808349609375	1108.30517578125	96.49433135986328	-624.788330078125	1301.073852539062	104.0923461914062	-864.0772094726562	1235.048706054688	94.58724212646484	-825.8093872070312	1509.3935546875	110.5165405273438	-647.8091430664062	1412.492553710938	103.7023849487305	-895.5697021484375	1381.218505859375	189.9789123535156	-856.3943481445312	1455.610961914062	18.46910667419434	-758.0205078125	1484.780517578125	-59.23799514770508	-766.8756103515625	1360.238159179688	-143.1549530029297	-747.3480834960938	1138.439331054688	-163.9635162353516	-837.6229858398438	1130.961059570312	-118.0514297485352	-654.4010009765625	897.97265625	-107.0436935424805	-692.2891235351562	873.2874755859375	-181.1198883056641	-722.9005737304688	1052.337036132812	-168.2757568359375	-650.1914672851562	729.5708618164062	-111.3779373168945	-681.6159057617188	814.0237426757812	-172.4936065673828	-632.731201171875	821.9329223632812	-125.166389465332	-772.263427734375	1472.408569335938	265.9231262207031	-793.6546630859375	1407.908081054688	332.956298828125	-796.5750122070312	1119.172485351562	379.9942016601562	-849.923828125	1101.614501953125	351.2753295898438	-663.306396484375	897.2412109375	341.7699890136719	-708.2236938476562	878.1751098632812	408.5349426269531	-784.918212890625	1063.715209960938	388.1539001464844	-651.202880859375	724.1978759765625	349.474853515625	-634.9168701171875	806.6832275390625	358.5234069824219	-690.8496704101562	803.2109375	407.4848937988281	-759.2968139648438	1691.265869140625	175.7883605957031	-597.8772583007812	1718.3896484375	47.66930389404297	-621.9129638671875	1717.666381835938	189.3766937255859	-724.6043701171875	1690.96142578125	13.36399173736572	-720.448486328125	942.2598266601562	-85.36904144287109	-758.1578979492188	947.0339965820312	300.2236938476562	-668.2423706054688	973.6326293945312	247.9172668457031	-643.4944458007812	965.5505981445312	-28.78840827941895	-711.9702758789062	494.9583740234375	-18.44617080688477	-704.3707275390625	660.50830078125	-59.78454208374023	-798.2885131835938	33.81670379638672	-10.97780227661133	-778.4962158203125	252.1020660400391	-24.84271621704102	-596.0725708007812	39.0216178894043	68.93901062011719	-672.3600463867188	40.920166015625	95.87937164306641	-675.0252685546875	35.95607757568359	-11.76382255554199	-872.7857055664062	35.08464050292969	34.61490631103516	-741.81689453125	500.2589416503906	257.3529052734375	-723.2239379882812	791.3939819335938	299.3728942871094	-829.6680908203125	35.19438552856445	242.4849700927734	-746.240234375	358.1734313964844	245.1575927734375	-607.4686279296875	39.22735595703125	213.3559875488281	-668.1423950195312	40.3678092956543	168.3036804199219	-698.3306884765625	37.11781692504883	270.4811401367188	-880.0062255859375	27.75554275512695	183.3697967529297	
